<svg id="Capa_1" enable-background="new 0 0 512 512" height="512" viewBox="0 0 512 512" width="512" xmlns="http://www.w3.org/2000/svg"><g><g><path d="m256 10c-49.709 0-90 40.295-90 90v74.03c-17.93 10.37-30 29.76-30 51.97v276c66.27 0 120-53.73 120-120v-9.79c51.76-13.32 90-60.3 90-116.21 0-6.754 0-238.501 0-246z" fill="#b8ecbc"/><path d="m406 70v30h-60v-90c33.14 0 60 26.86 60 60z" fill="#ffa2c3"/><path d="m256 256v90c0 16.57-13.43 30-30 30s-30-13.43-30-30c0 16.57-13.43 30-30 30s-30-13.43-30-30v-90c0 16.57 13.43 30 30 30s30-13.43 30-30c0 16.57 13.43 30 30 30s30-13.43 30-30z" fill="#ffda8f"/></g><g><circle cx="286" cy="70" r="10"/><path d="m502 396h-236.756c.495-4.601.756-9.27.756-14v-2.284c36.668-11.856 66.574-39.725 80.888-75.817 2.036-5.134-.476-10.946-5.609-12.982-5.135-2.036-10.945.476-12.982 5.609-11.303 28.502-34.092 50.942-62.296 61.965v-132.491c0-38.598-31.402-70-70-70-6.802 0-13.541.995-20 2.917v-58.917c0-44.246 35.891-80 80-80h80v191c0 5.523 4.478 10 10 10s10-4.477 10-10v-101h50c5.522 0 10-4.477 10-10v-30c0-38.598-31.402-70-70-70h-90c-26.89 0-52.656 10.885-71.401 30h-18.6c-11.028 0-20-8.972-20-20 0-5.523-4.477-10-10-10s-10 4.477-10 10c0 22.056 17.944 39.99 40 39.99h3.391c-1.868 3.23-3.544 6.578-5.04 10.01h-58.351c-11.028 0-20-8.972-20-20 0-5.523-4.477-10-10-10s-10 4.477-10 10c0 22.056 17.944 40 40 39.99h52.016c-1.329 6.554-2.016 13.239-2.016 20.01v68.564c-18.636 13.012-30 34.508-30 57.436v170h-116c-5.523 0-10 4.477-10 10s4.477 10 10 10h116v86c0 5.523 4.477 10 10 10 59.922 0 110.495-40.756 125.48-96h240.52c5.522 0 10-4.477 10-10s-4.478-10-10-10zm-106-326v20h-40v-68.994c22.795 4.646 40 24.848 40 48.994zm-200 266c-5.523 0-10 4.477-10 10 0 11.028-8.972 20-20 20s-20-8.972-20-20v-55.381c5.888 3.415 12.717 5.381 20 5.381 11.938 0 22.665-5.264 30-13.585 7.335 8.321 18.062 13.585 30 13.585 7.283 0 14.112-1.966 20-5.381v55.381c0 11.028-8.972 20-20 20s-20-8.972-20-20c0-5.523-4.477-10-10-10zm-50-110c0-27.247 22.084-50 50-50 27.57 0 50 22.43 50 50v30c0 11.028-8.972 20-20 20s-20-8.972-20-20c0-5.523-4.477-10-10-10s-10 4.477-10 10c0 11.028-8.972 20-20 20s-20-8.972-20-20zm0 265.549v-110.93c5.888 3.415 12.717 5.381 20 5.381 11.938 0 22.665-5.264 30-13.585 7.335 8.321 18.062 13.585 30 13.585 7.283 0 14.112-1.966 20-5.381v1.381c0 57.285-44.012 104.483-100 109.549z"/><circle cx="346" cy="256" r="10"/></g></g></svg>